<svg id="Layer_1" viewBox="0 0 512 512" xmlns="http://www.w3.org/2000/svg" data-name="Layer 1"><path d="m426.892 312.972h-.187c7.281-8.086 12.459-18.559 15.413-29.834l28.192-5.99a8 8 0 0 0 6.338-7.825v-71.35a8 8 0 0 0 -6.334-7.825l-40.079-8.535-14.241-34.378 22.314-34.37a8 8 0 0 0 -1.053-10.013l-50.455-50.459a8 8 0 0 0 -10.013-1.053l-34.37 22.314-34.382-14.241-8.535-40.08a8 8 0 0 0 -7.826-6.333h-71.349a8 8 0 0 0 -7.825 6.338l-8.509 40.075-34.4 14.242-34.375-22.315a8 8 0 0 0 -10.016 1.053l-50.455 50.459a8 8 0 0 0 -1.051 10.016l22.34 34.371-14.241 34.4-40.1 8.509a8 8 0 0 0 -6.34 7.826v71.35a8 8 0 0 0 6.338 7.825l28.193 5.99c2.954 11.275 8.132 21.748 15.413 29.834h-.188c-31.327 0-56.814 23.923-56.814 53.327v61.883a8 8 0 0 0 8 8h88.892v54.817a8 8 0 0 0 8 8h245.63a8 8 0 0 0 8-8v-54.818h88.892a8 8 0 0 0 8-8v-61.882c-.002-29.4-25.49-53.328-56.817-53.328zm-35.378 0c-27.338 0-37.525-32.2-37.525-52.493a37.526 37.526 0 1 1 75.052 0c0 20.295-10.189 52.493-37.527 52.493zm-128.669 26.063a2.074 2.074 0 0 1 1.8.807 18.046 18.046 0 0 1 .239 7.436 8.356 8.356 0 0 1 -3.277 3.669 8 8 0 0 0 -3.929 8.059l14.752 103.788-16.416 16.772-16.439-16.774 14.752-103.786a8 8 0 0 0 -3.928-8.058 8.509 8.509 0 0 1 -3.263-3.639 18.079 18.079 0 0 1 .238-7.447 2.061 2.061 0 0 1 1.811-.827zm-58.2-102.968c-7.077-23.257.171-39.927 7.5-49.817 10.48-14.145 28.11-23.649 43.867-23.649 13.9 0 29.761 7.63 40.4 19.439a8.01 8.01 0 0 0 2.832 2.014c7.171 3.027 9.966 5.585 11.5 10.529 2.455 7.905 1.308 21.634-3.5 41.971a8 8 0 0 0 12.175 8.529 1.49 1.49 0 0 1 .23 0c1.084 2.046 1.226 9.6-2.348 18.109-2.867 6.827-6.727 10.686-9.115 11.029a8 8 0 0 0 -6.894 5.429c-8.828 26.354-26.6 43.383-45.282 43.383-18.7 0-36.483-17.029-45.31-43.383a8 8 0 0 0 -6.766-5.417c-2.4-.247-6.345-4.136-9.258-11.091-3.558-8.5-3.4-16.033-2.316-18.059a1.5 1.5 0 0 1 .242 0 8 8 0 0 0 12.042-9.017zm110.364 52.773c12.61-5.062 19.865-22.64 21.1-35.137 1.21-12.195-2.919-21.038-11.064-23.737 7.678-39.174-.439-52.031-17.95-59.943-13.7-14.485-33.113-23.422-51.086-23.422-20.9 0-43.164 11.824-56.723 30.124-11.366 15.34-15.651 33.944-12.462 53.29-8.053 2.752-12.135 11.565-10.935 23.692 1.236 12.486 8.484 30.047 21.093 35.123 5.3 14.083 12.781 25.7 21.7 34.205h-14.3c-2.2 0-4.374.107-6.53.272a108.212 108.212 0 0 1 -30.352-29.769 89.609 89.609 0 0 0 6.538-33.059 53.539 53.539 0 0 0 -23.477-44.285 106.877 106.877 0 0 1 210.877.009 53.547 53.547 0 0 0 -23.451 44.276 89.689 89.689 0 0 0 6.521 33.04 108.148 108.148 0 0 1 -30.347 29.79c-2.164-.167-4.347-.274-6.557-.274h-14.29c8.919-8.504 16.4-20.116 21.695-34.195zm-156.068 20.106q1.747 2.244 3.594 4.41a60.159 60.159 0 0 0 -6.672-.384h-.175c1.126-1.266 2.212-2.615 3.253-4.026zm194.124-.006c1.048 1.413 2.129 2.764 3.256 4.032h-.184a60.051 60.051 0 0 0 -6.666.384q1.851-2.166 3.594-4.416zm-286.106-48.461c0 1.9.07 3.813.192 5.722l-15.8-3.357v-58.391l37.883-8.037a8 8 0 0 0 5.731-4.766l17.462-42.181a8 8 0 0 0 -.683-7.42l-21.1-32.466 41.3-41.3 32.456 21.083a8 8 0 0 0 7.416.681l42.184-17.462a8 8 0 0 0 4.766-5.73l8.034-37.855h58.4l8.063 37.86a8 8 0 0 0 4.763 5.724l42.152 17.463a8 8 0 0 0 7.418-.681l32.468-21.079 41.3 41.3-21.079 32.467a8 8 0 0 0 -.681 7.418l17.462 42.153a8 8 0 0 0 5.725 4.763l37.86 8.062v58.4l-15.8 3.357c.122-1.909.192-3.819.192-5.722a53.5 53.5 0 0 0 -68.643-51.372 122.878 122.878 0 0 0 -240.8 0 53.5 53.5 0 0 0 -68.645 51.367zm16 0a37.541 37.541 0 1 1 75.081 0c0 20.3-10.2 52.493-37.555 52.493-27.338 0-37.526-32.198-37.526-52.493zm-38.666 159.7v-53.879c0-20.582 18.309-37.327 40.814-37.327h70.756a43.919 43.919 0 0 1 13.013 1.964c-25.884 12.209-43.691 37.3-43.691 66.234v23.012zm96.892-23.012c0-32.056 28.356-58.135 63.208-58.135h26.841c-.8 5.318-.292 11.3 1.308 14.84a25.16 25.16 0 0 0 5.29 7.467l-14.656 103.1a8 8 0 0 0 2.206 6.725l11.592 11.836h-39.321v-71.968a8 8 0 0 0 -16 0v71.968h-40.468zm229.63 85.833h-40.44v-71.968a8 8 0 1 0 -16 0v71.968h-39.336l11.581-11.832a8 8 0 0 0 2.2-6.722l-14.651-103.092a24.623 24.623 0 0 0 5.3-7.5c1.6-3.475 2.126-9.465 1.313-14.823h26.827c34.853 0 63.209 26.079 63.209 58.135zm96.892-62.818h-80.892v-23.012c0-28.93-17.808-54.025-43.692-66.234a43.921 43.921 0 0 1 13.014-1.964h70.755c22.5 0 40.815 16.745 40.815 37.327z"/><path d="m307.606 339.035h-26.827c.813 5.358.289 11.348-1.313 14.823a24.623 24.623 0 0 1 -5.3 7.5l14.654 103.092a8 8 0 0 1 -2.2 6.722l-11.581 11.828h39.336v-71.968a8 8 0 1 1 16 0v71.968h40.44v-85.83c0-32.056-28.356-58.135-63.209-58.135z" fill="#eae8e8"/><path d="m201.73 244.844a8 8 0 0 1 -9.124.24 1.5 1.5 0 0 0 -.242 0c-1.087 2.026-1.242 9.561 2.316 18.059 2.913 6.955 6.862 10.844 9.258 11.091a8 8 0 0 1 6.766 5.417c8.827 26.354 26.612 43.383 45.31 43.383 18.68 0 36.454-17.029 45.282-43.383a8 8 0 0 1 6.894-5.429c2.388-.343 6.248-4.2 9.115-11.029 3.574-8.507 3.432-16.063 2.348-18.109a1.49 1.49 0 0 0 -.23 0 8 8 0 0 1 -12.175-8.529c4.811-20.337 5.958-34.066 3.5-41.971-1.534-4.944-4.329-7.5-11.5-10.529a8.01 8.01 0 0 1 -2.832-2.014c-10.644-11.809-26.5-19.439-40.4-19.439-15.757 0-33.387 9.5-43.867 23.649-7.328 9.89-14.576 26.56-7.5 49.817a8 8 0 0 1 -2.919 8.776z" fill="#ffddab"/><path d="m135.6 209.112a122.878 122.878 0 0 1 240.8 0 53.5 53.5 0 0 1 68.641 51.366c0 1.9-.07 3.813-.192 5.722l15.8-3.357v-58.4l-37.86-8.062a8 8 0 0 1 -5.725-4.763l-17.464-42.148a8 8 0 0 1 .681-7.418l21.079-32.467-41.3-41.3-32.46 21.081a8 8 0 0 1 -7.418.681l-42.157-17.463a8 8 0 0 1 -4.763-5.724l-8.062-37.86h-58.4l-8.037 37.855a8 8 0 0 1 -4.763 5.73l-42.18 17.462a8 8 0 0 1 -7.416-.681l-32.468-21.079-41.295 41.3 21.1 32.466a8 8 0 0 1 .683 7.42l-17.459 42.177a8 8 0 0 1 -5.731 4.766l-37.883 8.037v58.391l15.8 3.357c-.122-1.909-.192-3.819-.192-5.722a53.5 53.5 0 0 1 68.641-51.367z" fill="#484868"/><path d="m391.514 222.925a37.582 37.582 0 0 0 -37.525 37.554c0 20.3 10.187 52.493 37.525 52.493s37.527-32.2 37.527-52.493a37.582 37.582 0 0 0 -37.527-37.554z" fill="#ffddab"/><path d="m261.6 350.947a8.356 8.356 0 0 0 3.277-3.669 18.046 18.046 0 0 0 -.239-7.436 2.074 2.074 0 0 0 -1.8-.807h-13.656a2.061 2.061 0 0 0 -1.811.827 18.079 18.079 0 0 0 -.238 7.447 8.509 8.509 0 0 0 3.263 3.639 8 8 0 0 1 3.928 8.058l-14.752 103.786 16.439 16.774 16.416-16.772-14.752-103.788a8 8 0 0 1 3.925-8.059z" fill="#ad1e1e"/><path d="m155.863 312.972a60.159 60.159 0 0 1 6.672.384q-1.85-2.161-3.594-4.41c-1.046 1.411-2.127 2.76-3.253 4.026z" fill="#484868"/><path d="m356.321 312.972c-1.127-1.268-2.208-2.618-3.256-4.032q-1.748 2.247-3.594 4.416a60.051 60.051 0 0 1 6.666-.384z" fill="#484868"/><path d="m120.485 312.972c27.359 0 37.555-32.2 37.555-52.493a37.541 37.541 0 1 0 -75.081 0c0 20.295 10.188 52.493 37.526 52.493z" fill="#ffddab"/><path d="m426.892 328.972h-70.755a43.953 43.953 0 0 0 -13.014 1.964c25.884 12.209 43.692 37.3 43.692 66.234v23.012h80.892v-53.882c0-20.583-18.307-37.328-40.815-37.328z" fill="#7da8ff"/><path d="m237.832 361.342a25.16 25.16 0 0 1 -5.29-7.467c-1.6-3.537-2.11-9.522-1.308-14.84h-26.841c-34.852 0-63.208 26.079-63.208 58.135v85.83h40.468v-71.968a8 8 0 0 1 16 0v71.968h39.321l-11.592-11.829a8 8 0 0 1 -2.206-6.725z" fill="#eae8e8"/><path d="m168.876 330.936a43.952 43.952 0 0 0 -13.013-1.964h-70.756c-22.505 0-40.814 16.745-40.814 37.327v53.883h80.892v-23.012c0-28.93 17.807-54.025 43.691-66.234z" fill="#7da8ff"/><path d="m292.032 202.977c3.4 14.808 9.082 23.472 15.953 30.371 4.182-18.577 5.089-31.284 2.766-38.765-1.534-4.944-4.329-7.5-11.5-10.529a8.01 8.01 0 0 1 -2.832-2.014c-10.644-11.809-26.5-19.439-40.4-19.439-15.757 0-33.387 9.5-43.867 23.649-6.851 9.245-13.628 24.418-8.7 45.357 24.538-22.472 69.411-8.414 88.58-28.63z" fill="#7c6359"/></svg>