<svg id="Filled" height="512" viewBox="0 0 512 512" width="512" xmlns="http://www.w3.org/2000/svg"><g><path d="m424 152v-68a60 60 0 0 0 -60-60h-56a60 60 0 0 0 -60 60v68z" fill="#fb8656"/><path d="m336 256c75.111 0 136 89.543 136 200h-288a294.559 294.559 0 0 1 1.671-31.442c.574-5.347 17.292-10.623 18.148-15.82 14.441-87.647 68.142-152.738 132.181-152.738z" fill="#fdbf67"/><path d="m472 456c0-60.3-18.147-114.369-46.848-151.037-17.926 20.947-41.6 37.853-66.081 50.913-20.27 10.813-41.813 19.888-59.331 34.751-21.614 18.34-35.54 45.263-38.788 73.373h211.048z" fill="#fdb651"/><path d="m296 264 40 56 40-56-8-40h-64z" fill="#ffd4cf"/><path d="m368 224h-64l-4.485 22.424 5.854 3.658a58.006 58.006 0 0 0 61.253.141l5.893-3.646z" fill="#fbb8b0"/><path d="m420 128h-20v-8h-18.7a80 80 0 0 1 -68.6-38.84l-.7-1.16-40 40v8h-20a20 20 0 0 0 -20 20v16a20 20 0 0 0 20 20h20v-3.712a50 50 0 0 0 23.5 42.4l19.408 12.13a40 40 0 0 0 42.244.1l19.148-11.851a50 50 0 0 0 23.7-42.522v3.455h20a20 20 0 0 0 20-20v-16a20 20 0 0 0 -20-20z" fill="#ffd4cf"/><g><path d="m200 184a48 48 0 1 0 -64.982 44.909l-7.018 35.091h48l-7.018-35.091a48.018 48.018 0 0 0 31.018-44.909z" fill="#fdbf67"/><path d="m24 456h464v32h-464z" fill="#25b1fa" transform="matrix(-1 0 0 -1 512 944)"/><path d="m424 426.97 60.267-91.27a20 20 0 0 0 -8.846-30.194l-.187-.075a20 20 0 0 0 -24.792 8.647l-50.442 96.892z" fill="#fb8656"/><path d="m360 408h80a0 0 0 0 1 0 0v8a40 40 0 0 1 -40 40 40 40 0 0 1 -40-40v-8a0 0 0 0 1 0 0z" fill="#ffd4cf" transform="matrix(-1 0 0 -1 800 864)"/><rect fill="#4dccff" height="160" rx="10" transform="matrix(-1 0 0 -1 304 688)" width="256" x="24" y="264"/><path d="m198.222 400-12.482-56.169a10 10 0 0 0 -9.762-7.831h-47.956a10 10 0 0 0 -9.762 7.831l-12.482 56.169h-81.778v14a10 10 0 0 0 10 10h236a10 10 0 0 0 10-10v-14z" fill="#25b1fa"/><circle cx="152" cy="200" fill="#fb8656" r="32"/><path d="m112 456h80v-24l-16-88h-48l-16 88z" fill="#4dccff"/></g><path d="m360 144h16v16h-16z"/><path d="m296 144h16v16h-16z"/><path d="m336 216c13.458 0 24-8.785 24-20h-16c0 1.41-3.037 4-8 4s-8-2.59-8-4h-16c0 11.215 10.542 20 24 20z"/><path d="m494.863 316.205a27.829 27.829 0 0 0 -16.463-18.121l-.2-.079a28.121 28.121 0 0 0 -34.71 12.106c-.052.091-.1.182-.15.275l-46.71 89.732a48.063 48.063 0 0 0 -44.63 47.882h-152v-16h70a18.021 18.021 0 0 0 18-18v-135.928q2.893-1.769 5.846-3.324l35.644 49.9a8 8 0 0 0 13.02 0l35.643-49.9c16.881 8.913 32.581 23.276 45.69 41.862l13.075-9.222c-15.165-21.5-33.654-38.019-53.685-48.016l-5.55-27.751 2.83-1.751a57.581 57.581 0 0 0 26.366-37.87h13.121a28.032 28.032 0 0 0 28-28v-16a28.035 28.035 0 0 0 -16-25.3v-38.7a68.077 68.077 0 0 0 -68-68h-56a68.077 68.077 0 0 0 -68 68v4h16v-4a52.059 52.059 0 0 1 52-52h56a52.059 52.059 0 0 1 52 52v36h-8a8 8 0 0 0 -8-8h-18.7a72.363 72.363 0 0 1 -61.739-34.957l-.7-1.159a8 8 0 0 0 -12.517-1.541l-40 40a8 8 0 0 0 -2.344 5.657h-8v-16h-16v18.7a28.035 28.035 0 0 0 -16 25.3v16a28.032 28.032 0 0 0 28 28h13.175a57.625 57.625 0 0 0 26.085 37.472l3.1 1.937-5.593 27.963q-2.632 1.311-5.233 2.774a17.961 17.961 0 0 0 -13.534-6.146h-87.441l-4.49-22.446a56 56 0 1 0 -52.138 0l-4.49 22.446h-87.441a18.021 18.021 0 0 0 -18 18v38h16v-38a2 2 0 0 1 2-2h236a2 2 0 0 1 2 2v140a2 2 0 0 1 -2 2h-72.778l-13.351-73.431a8 8 0 0 0 -7.871-6.569h-48a8 8 0 0 0 -7.871 6.569l-13.351 73.431h-72.778a2 2 0 0 1 -2-2v-86h-16v86a18.021 18.021 0 0 0 18 18h70v16h-80a8 8 0 0 0 -8 8v32a8 8 0 0 0 8 8h328v-16h-320v-16h448v16h-112v16h120a8 8 0 0 0 8-8v-32a8 8 0 0 0 -8-8h-8.1a295.17 295.17 0 0 0 -5.451-49.554l-15.695 3.108a279.15 279.15 0 0 1 5.136 46.446h-15.89a47.745 47.745 0 0 0 -9.443-28.558l52.312-79.219a27.829 27.829 0 0 0 3.994-24.018zm-343.175-92.205a24 24 0 1 1 .624 0h-.312zm.312-80a40.019 40.019 0 0 1 39.2 48 40.005 40.005 0 0 0 -78.392 0 40.019 40.019 0 0 1 39.192-48zm-14.242 112 3.411-17.051a56.335 56.335 0 0 0 21.662 0l3.411 17.051zm282.242-120a12.013 12.013 0 0 1 12 12v16a12.013 12.013 0 0 1 -12 12h-12v-40zm-180 28v-16a12.013 12.013 0 0 1 12-12h12v40h-12a12.013 12.013 0 0 1 -12-12zm40 16.288v-56.974l30.737-30.737a88.512 88.512 0 0 0 70.563 35.423h10.7v52.545a41.738 41.738 0 0 1 -19.9 35.719l-19.153 11.848a31.805 31.805 0 0 1 -33.795-.078l-19.412-12.134a41.758 41.758 0 0 1 -19.74-35.612zm30.668 61.312a47.7 47.7 0 0 0 50.692.116l1.8-1.114 4.314 21.566-31.474 44.068-31.476-44.066 4.34-21.7zm-190.668 206.4v-15.279l14.677-80.721h34.646l14.677 80.721v15.279zm248 0a32 32 0 0 1 64 0zm109.758-116.948c-.057.08-.112.16-.166.242l-50.785 76.906a47.823 47.823 0 0 0 -13.107-6.21l43.761-84.059a12.048 12.048 0 0 1 14.8-5.074l.2.079a12 12 0 0 1 5.309 18.116z"/><path d="m144 192h16v16h-16z"/><path d="m104 296h56v16h-56z"/><path d="m176 296h24v16h-24z"/></g></svg>